<?xml version="1.0" standalone="no"?>
<!DOCTYPE svg PUBLIC "-//W3C//DTD SVG 20010904//EN"
 "http://www.w3.org/TR/2001/REC-SVG-20010904/DTD/svg10.dtd">
<svg version="1.0" xmlns="http://www.w3.org/2000/svg"
 width="512.000000pt" height="512.000000pt" viewBox="0 0 512.000000 512.000000"
 preserveAspectRatio="xMidYMid meet">

<g transform="translate(0.000000,512.000000) scale(0.100000,-0.100000)"
fill="#000000" stroke="none">
<path d="M681 4784 c-169 -45 -301 -180 -346 -351 -23 -86 -23 -3660 0 -3746
45 -173 178 -307 350 -352 89 -23 2061 -23 2150 0 219 57 365 250 365 482 l0
72 53 40 c90 68 234 132 387 172 30 8 210 14 552 18 491 6 507 7 534 27 15 11
37 33 48 48 21 27 21 30 21 1366 0 1336 0 1339 -21 1366 -11 15 -33 37 -48 48
-27 20 -41 21 -484 24 -304 2 -489 -1 -552 -8 -129 -16 -260 -51 -372 -100
-51 -23 -99 -44 -105 -47 -10 -4 -13 52 -13 264 0 209 -3 282 -15 328 -45 172
-179 305 -352 350 -84 22 -2070 21 -2152 -1z m764 -351 c8 -53 41 -125 79
-170 14 -16 53 -45 88 -64 58 -31 70 -34 148 -34 78 0 90 3 148 34 35 19 74
48 88 64 38 45 71 117 79 170 l7 48 348 -3 c334 -3 350 -4 376 -24 15 -11 37
-33 48 -48 20 -26 21 -43 24 -297 2 -148 0 -269 -3 -269 -3 0 -31 13 -63 29
-77 39 -221 86 -329 108 -78 16 -146 18 -595 18 -496 0 -507 0 -534 -21 -15
-11 -37 -33 -48 -48 -21 -27 -21 -30 -21 -1366 0 -1336 0 -1339 21 -1366 11
-15 33 -37 48 -48 27 -20 42 -21 534 -27 478 -5 511 -6 584 -27 149 -41 281
-103 372 -175 l38 -30 -4 -73 c-4 -78 -18 -108 -72 -148 -27 -21 -33 -21
-1046 -21 -1013 0 -1019 0 -1046 21 -15 11 -37 33 -48 48 l-21 27 -3 1792 c-1
986 0 1806 3 1824 7 40 49 91 90 109 23 10 109 13 366 14 l337 0 7 -47z m1035
-782 c170 -47 310 -121 433 -229 96 -86 157 -84 268 10 135 113 248 172 419
219 81 22 105 23 483 27 l397 3 0 -1119 0 -1120 -412 -5 c-401 -4 -416 -5
-518 -30 -167 -40 -315 -103 -443 -188 -32 -22 -63 -39 -68 -39 -5 0 -35 17
-67 39 -122 83 -274 148 -442 188 -102 25 -117 26 -517 30 l-413 5 0 1120 0
1119 398 -3 c377 -4 401 -5 482 -27z"/>
<path d="M1855 3346 c-94 -41 -124 -168 -58 -247 46 -54 71 -59 293 -59 276 0
401 -27 512 -111 87 -65 164 -65 229 0 41 41 55 88 44 149 -20 109 -259 236
-509 271 -113 16 -473 14 -511 -3z"/>
<path d="M3705 3349 c-94 -14 -233 -56 -313 -96 -95 -47 -178 -124 -187 -175
-11 -61 3 -108 44 -149 61 -62 146 -65 217 -8 53 42 99 65 185 90 64 19 109
23 321 28 271 7 272 7 322 75 29 39 29 133 0 172 -51 68 -53 69 -302 71 -125
0 -254 -3 -287 -8z"/>
<path d="M1855 2706 c-94 -41 -124 -168 -58 -247 46 -54 71 -59 293 -59 276 0
401 -27 512 -111 87 -65 164 -65 229 0 41 41 55 88 44 149 -20 109 -259 236
-509 271 -113 16 -473 14 -511 -3z"/>
<path d="M3705 2709 c-94 -14 -233 -56 -313 -96 -95 -47 -178 -124 -187 -175
-11 -61 3 -108 44 -149 61 -62 146 -65 217 -8 53 42 99 65 185 90 64 19 109
23 321 28 271 7 272 7 322 75 29 39 29 133 0 172 -51 68 -53 69 -302 71 -125
0 -254 -3 -287 -8z"/>
<path d="M1855 2066 c-94 -41 -124 -168 -58 -247 46 -54 71 -59 293 -59 276 0
401 -27 512 -111 87 -65 164 -65 229 0 41 41 55 88 44 149 -20 109 -259 236
-509 271 -113 16 -473 14 -511 -3z"/>
<path d="M3705 2069 c-94 -14 -233 -56 -313 -96 -95 -47 -178 -124 -187 -175
-11 -61 3 -108 44 -149 61 -62 146 -65 217 -8 53 42 99 65 185 90 64 19 109
23 321 28 271 7 272 7 322 75 29 39 29 133 0 172 -51 68 -53 69 -302 71 -125
0 -254 -3 -287 -8z"/>
</g>
</svg>
