<?xml version="1.0" standalone="no"?>
<!DOCTYPE svg PUBLIC "-//W3C//DTD SVG 20010904//EN"
 "http://www.w3.org/TR/2001/REC-SVG-20010904/DTD/svg10.dtd">
<svg version="1.0" xmlns="http://www.w3.org/2000/svg"
 width="512.000000pt" height="512.000000pt" viewBox="0 0 512.000000 512.000000"
 preserveAspectRatio="xMidYMid meet">

<g transform="translate(0.000000,512.000000) scale(0.100000,-0.100000)"
fill="#000000" stroke="none">
<path d="M1995 4841 c-54 -24 -100 -72 -119 -123 -15 -38 -16 -98 -14 -494 l3
-451 30 -48 c22 -36 45 -57 84 -77 l53 -28 1247 0 c1185 0 1248 1 1286 19 22
10 55 33 72 51 64 66 64 67 61 566 l-3 451 -30 48 c-22 36 -45 57 -84 77 l-53
28 -1247 0 c-1185 0 -1248 -1 -1286 -19z m2534 -115 c50 -26 51 -36 51 -486 0
-450 -1 -460 -51 -486 -42 -21 -2456 -21 -2498 0 -50 26 -51 35 -51 489 1 451
1 455 51 483 37 21 2458 20 2498 0z"/>
<path d="M2360 4480 c-11 -11 -20 -29 -20 -40 0 -11 9 -29 20 -40 20 -20 33
-20 920 -20 887 0 900 0 920 20 11 11 20 29 20 40 0 11 -9 29 -20 40 -20 20
-33 20 -920 20 -887 0 -900 0 -920 -20z"/>
<path d="M2360 4080 c-11 -11 -20 -29 -20 -40 0 -11 9 -29 20 -40 20 -20 33
-20 920 -20 887 0 900 0 920 20 11 11 20 29 20 40 0 11 -9 29 -20 40 -20 20
-33 20 -920 20 -887 0 -900 0 -920 -20z"/>
<path d="M983 4298 l-233 -232 -119 117 c-98 97 -123 117 -148 117 -33 0 -63
-26 -63 -56 0 -12 52 -71 133 -151 109 -108 139 -132 170 -137 67 -12 105 16
345 257 195 196 222 227 222 254 0 33 -29 63 -59 63 -8 0 -120 -104 -248 -232z"/>
<path d="M837 3692 c-15 -17 -17 -60 -17 -414 0 -370 1 -396 18 -411 24 -22
65 -21 85 1 15 17 17 60 17 414 0 370 -1 396 -18 411 -24 22 -65 21 -85 -1z"/>
<path d="M1995 3161 c-54 -24 -100 -72 -119 -123 -15 -38 -16 -98 -14 -494 l3
-451 30 -48 c22 -36 45 -57 84 -77 l53 -28 1247 0 c1185 0 1248 1 1286 19 22
10 55 33 72 51 64 66 64 67 61 566 l-3 451 -30 48 c-22 36 -45 57 -84 77 l-53
28 -1247 0 c-1185 0 -1248 -1 -1286 -19z m2534 -115 c50 -26 51 -36 51 -486 0
-450 -1 -460 -51 -486 -42 -21 -2456 -21 -2498 0 -50 26 -51 35 -51 489 1 451
1 455 51 483 37 21 2458 20 2498 0z"/>
<path d="M2360 2800 c-11 -11 -20 -29 -20 -40 0 -11 9 -29 20 -40 20 -20 33
-20 920 -20 887 0 900 0 920 20 11 11 20 29 20 40 0 11 -9 29 -20 40 -20 20
-33 20 -920 20 -887 0 -900 0 -920 -20z"/>
<path d="M2360 2400 c-11 -11 -20 -29 -20 -40 0 -11 9 -29 20 -40 20 -20 33
-20 920 -20 887 0 900 0 920 20 11 11 20 29 20 40 0 11 -9 29 -20 40 -20 20
-33 20 -920 20 -887 0 -900 0 -920 -20z"/>
<path d="M983 2618 l-233 -232 -119 117 c-98 97 -123 117 -148 117 -33 0 -63
-26 -63 -56 0 -12 52 -71 133 -151 109 -108 139 -132 170 -137 67 -12 105 16
345 257 195 196 222 227 222 254 0 33 -29 63 -59 63 -8 0 -120 -104 -248 -232z"/>
<path d="M837 2012 c-15 -16 -17 -53 -17 -305 0 -274 1 -288 20 -307 11 -11
29 -20 40 -20 11 0 29 9 40 20 19 19 20 33 20 308 0 267 -1 290 -18 305 -24
22 -65 21 -85 -1z"/>
<path d="M1995 1481 c-54 -24 -100 -72 -119 -123 -15 -38 -16 -98 -14 -494 l3
-451 30 -48 c22 -36 45 -57 84 -77 l53 -28 1247 0 c1185 0 1248 1 1286 19 22
10 55 33 72 51 64 66 64 67 61 566 l-3 451 -30 48 c-22 36 -45 57 -84 77 l-53
28 -1247 0 c-1185 0 -1248 -1 -1286 -19z m2534 -115 c50 -26 51 -36 51 -486 0
-450 -1 -460 -51 -486 -42 -21 -2456 -21 -2498 0 -50 26 -51 35 -51 489 1 451
1 455 51 483 37 21 2458 20 2498 0z"/>
<path d="M2360 1120 c-11 -11 -20 -29 -20 -40 0 -11 9 -29 20 -40 20 -20 33
-20 920 -20 887 0 900 0 920 20 11 11 20 29 20 40 0 11 -9 29 -20 40 -20 20
-33 20 -920 20 -887 0 -900 0 -920 -20z"/>
<path d="M2360 720 c-11 -11 -20 -29 -20 -40 0 -11 9 -29 20 -40 20 -20 33
-20 920 -20 887 0 900 0 920 20 11 11 20 29 20 40 0 11 -9 29 -20 40 -20 20
-33 20 -920 20 -887 0 -900 0 -920 -20z"/>
<path d="M783 1162 c-251 -90 -272 -432 -35 -549 81 -40 183 -40 264 0 107 53
163 144 163 267 0 85 -21 142 -74 203 -72 81 -213 117 -318 79z m177 -124
c132 -67 132 -249 0 -315 -56 -29 -104 -29 -160 0 -132 66 -132 248 0 315 24
12 60 22 80 22 20 0 56 -10 80 -22z"/>
</g>
</svg>
