<?xml version="1.0" standalone="no"?>
<!DOCTYPE svg PUBLIC "-//W3C//DTD SVG 20010904//EN"
 "http://www.w3.org/TR/2001/REC-SVG-20010904/DTD/svg10.dtd">
<svg version="1.0" xmlns="http://www.w3.org/2000/svg"
 width="512.000000pt" height="512.000000pt" viewBox="0 0 512.000000 512.000000"
 preserveAspectRatio="xMidYMid meet">

<g transform="translate(0.000000,512.000000) scale(0.100000,-0.100000)"
fill="#000000" stroke="none">
<path d="M2415 5102 c-219 -56 -396 -219 -455 -419 l-13 -43 -396 0 c-309 0
-411 -4 -466 -15 -198 -42 -354 -184 -422 -385 -17 -53 -18 -137 -21 -1887 -3
-2034 -7 -1908 64 -2052 47 -95 134 -183 230 -233 138 -72 40 -69 1651 -66
l1448 3 65 23 c173 63 297 191 353 367 l22 70 0 1855 c0 1769 -1 1858 -18
1915 -45 147 -152 277 -280 340 -123 60 -164 65 -608 65 l-395 0 -17 53 c-39
123 -154 266 -270 335 -137 82 -325 112 -472 74z m289 -316 c103 -51 186 -175
186 -280 0 -57 36 -124 80 -147 30 -17 59 -19 218 -19 l183 0 -3 -168 c-3
-168 -3 -169 -33 -218 -37 -58 -100 -100 -174 -114 -72 -13 -1130 -13 -1202 0
-74 14 -137 56 -174 114 -30 49 -30 50 -33 218 l-3 168 183 0 c159 0 188 2
218 19 44 23 80 90 80 147 0 93 70 212 156 265 92 57 220 63 318 15z m-1253
-641 c5 -165 8 -198 28 -247 65 -166 195 -287 366 -341 69 -22 78 -22 715 -22
638 0 646 0 715 22 139 44 256 136 326 257 53 92 62 136 68 336 l6 185 160 0
c182 -1 210 -9 278 -84 72 -80 68 58 65 -1957 l-3 -1809 -22 -40 c-25 -47 -74
-95 -123 -121 -34 -18 -90 -19 -1470 -19 -1380 0 -1436 1 -1470 19 -49 26 -98
74 -123 121 l-22 40 -3 1809 c-3 2014 -7 1877 65 1957 69 76 109 88 298 86
l140 -2 6 -190z"/>
<path d="M1845 3171 c-16 -10 -77 -67 -135 -125 -57 -58 -110 -106 -115 -106
-6 0 -24 14 -41 31 -39 41 -75 59 -121 59 -77 0 -143 -68 -143 -148 0 -61 15
-84 132 -199 83 -81 111 -103 142 -108 75 -15 98 1 302 207 175 176 192 197
199 236 19 119 -120 216 -220 153z"/>
<path d="M2492 2853 c-108 -53 -106 -210 3 -263 40 -19 62 -20 631 -20 541 0
592 1 624 18 107 53 107 211 0 264 -32 17 -83 18 -630 18 -528 0 -599 -2 -628
-17z"/>
<path d="M1855 2211 c-22 -10 -89 -68 -149 -129 l-110 -111 -42 39 c-23 21
-61 44 -83 51 -37 11 -48 10 -89 -7 -68 -28 -95 -72 -90 -147 l4 -58 105 -105
c57 -58 116 -112 131 -120 35 -18 92 -18 132 1 49 23 372 353 391 399 31 73
-7 161 -82 192 -43 19 -70 17 -118 -5z"/>
<path d="M2514 1899 c-42 -12 -91 -69 -100 -115 -13 -71 35 -154 99 -169 12
-3 295 -4 629 -3 l608 3 37 37 c32 33 37 44 40 95 5 73 -19 116 -80 143 -40
19 -71 20 -622 19 -319 0 -594 -5 -611 -10z"/>
<path d="M1855 1248 c-11 -6 -73 -62 -137 -126 l-116 -115 -47 41 c-79 69
-164 70 -227 3 -34 -36 -38 -46 -38 -91 0 -28 6 -63 14 -78 8 -15 59 -70 113
-123 73 -72 109 -100 140 -109 76 -23 106 -3 310 203 209 210 222 231 187 315
-25 61 -71 92 -133 92 -25 0 -55 -6 -66 -12z"/>
<path d="M2479 917 c-91 -61 -89 -181 5 -251 27 -21 39 -21 622 -24 572 -2
597 -2 639 17 63 28 87 70 82 143 -2 44 -9 64 -28 84 -52 56 -29 54 -682 54
l-604 0 -34 -23z"/>
</g>
</svg>
