<?xml version="1.0" standalone="no"?>
<!DOCTYPE svg PUBLIC "-//W3C//DTD SVG 20010904//EN"
 "http://www.w3.org/TR/2001/REC-SVG-20010904/DTD/svg10.dtd">
<svg version="1.0" xmlns="http://www.w3.org/2000/svg"
 width="512.000000pt" height="512.000000pt" viewBox="0 0 512.000000 512.000000"
 preserveAspectRatio="xMidYMid meet">

<g transform="translate(0.000000,512.000000) scale(0.100000,-0.100000)"
fill="#000000" stroke="none">
<path d="M2435 4949 c-144 -24 -298 -110 -407 -227 l-66 -73 -45 31 c-123 83
-238 115 -407 114 -105 -1 -137 -5 -202 -26 -119 -39 -204 -92 -294 -182 -90
-90 -143 -175 -182 -294 -22 -67 -25 -95 -26 -212 0 -119 3 -144 26 -212 41
-123 92 -204 187 -298 117 -116 226 -171 411 -205 25 -4 27 -12 137 -566 62
-309 115 -564 118 -567 5 -5 132 15 146 23 3 3 -4 54 -16 115 l-22 110 767 0
767 0 -22 -110 c-12 -61 -20 -112 -16 -114 14 -8 141 -29 146 -24 3 3 56 258
118 567 l112 561 35 6 c364 59 620 353 620 714 0 285 -155 528 -415 651 -227
107 -500 86 -703 -53 l-43 -30 -67 73 c-171 185 -413 269 -657 228z m295 -177
c136 -48 218 -111 296 -228 84 -126 100 -130 200 -47 187 154 412 184 620 83
343 -166 419 -621 149 -893 -100 -101 -252 -167 -386 -167 -74 0 -73 2 -155
-405 -41 -204 -79 -394 -85 -422 l-10 -53 -154 0 -154 0 5 28 c10 57 63 437
60 439 -5 5 -148 25 -152 21 -2 -3 -17 -99 -34 -214 -16 -115 -32 -224 -35
-241 l-6 -33 -124 0 -125 0 0 440 0 440 -80 0 -80 0 0 -440 0 -440 -125 0
-124 0 -6 33 c-3 17 -19 126 -35 241 -17 115 -32 211 -34 213 -1 2 -38 -2 -80
-8 -76 -11 -77 -12 -72 -38 3 -14 17 -109 31 -211 14 -102 28 -195 30 -207 l5
-23 -154 0 -155 0 -10 53 c-6 28 -44 218 -85 422 -82 407 -81 405 -155 405
-155 0 -337 92 -434 218 -214 281 -118 689 197 842 208 101 433 71 620 -83 38
-32 78 -57 90 -57 34 0 62 25 97 86 37 66 124 154 186 191 51 30 132 61 188
74 62 13 213 3 275 -19z"/>
<path d="M882 4900 c-270 -213 -418 -540 -399 -880 6 -100 38 -255 56 -273 5
-5 39 1 80 14 55 18 70 27 66 39 -43 110 -54 360 -21 484 54 203 169 378 330
502 l39 31 -42 61 c-23 34 -46 62 -50 62 -5 0 -32 -18 -59 -40z"/>
<path d="M687 3600 c-55 -34 -66 -44 -58 -58 20 -38 102 -142 111 -142 13 0
116 92 113 102 -2 4 -18 27 -35 51 -18 23 -40 53 -48 65 l-15 22 -68 -40z"/>
<path d="M675 3034 c-170 -27 -322 -122 -414 -260 -74 -110 -96 -189 -95 -339
1 -103 5 -131 27 -194 77 -213 216 -365 430 -467 174 -82 404 -86 577 -8 33
14 65 24 72 21 15 -5 746 -522 765 -541 10 -9 -72 -66 -383 -266 -326 -209
-402 -262 -430 -299 -117 -158 -65 -378 111 -468 67 -34 163 -42 234 -18 36
12 193 117 516 346 256 181 470 329 475 329 6 0 214 -145 463 -321 249 -177
476 -333 504 -346 41 -19 69 -24 123 -24 124 0 224 62 280 173 26 52 30 72 30
138 0 66 -4 86 -30 138 -17 33 -45 73 -63 89 -18 15 -201 136 -407 267 -206
131 -379 242 -383 246 -5 4 70 63 165 130 95 68 267 191 382 273 115 82 215
151 223 154 7 3 41 -7 73 -21 96 -43 189 -59 315 -53 122 6 186 22 288 73 91
45 159 97 237 181 79 84 132 172 167 278 37 114 39 276 4 384 -119 362 -547
515 -926 331 -271 -132 -433 -385 -436 -677 l0 -78 -504 -322 -505 -322 -504
322 -505 322 -1 78 c-1 167 -64 345 -169 473 -90 110 -264 221 -406 259 -60
16 -244 27 -300 19z m230 -169 c112 -23 227 -87 316 -175 127 -125 177 -260
164 -446 -5 -88 -4 -103 12 -121 10 -11 537 -353 1172 -759 635 -406 1167
-748 1182 -761 53 -45 63 -141 20 -201 -40 -56 -130 -79 -190 -48 -15 8 -486
340 -1047 738 -560 398 -1068 758 -1128 801 -69 48 -119 77 -136 77 -14 0 -55
-16 -91 -35 -156 -82 -338 -88 -494 -14 -302 142 -446 474 -315 729 30 60 124
151 185 180 100 49 225 61 350 35z m3607 -15 c379 -142 381 -634 3 -885 -88
-58 -174 -86 -280 -92 -114 -7 -184 8 -284 58 -43 21 -90 39 -104 39 -16 0
-173 -105 -475 -320 l-451 -320 -106 68 -106 68 498 320 c274 175 506 327 516
337 16 16 18 30 12 120 -13 187 37 321 164 447 87 86 180 140 293 170 96 26
236 22 320 -10z m-2174 -1815 c45 -32 79 -62 75 -65 -23 -20 -841 -598 -867
-612 -69 -38 -170 -8 -208 62 -23 42 -20 115 6 156 10 14 73 62 139 105 67 43
255 163 417 268 l295 189 30 -22 c17 -12 67 -49 113 -81z"/>
<path d="M4755 1745 c-84 -67 -220 -136 -330 -167 -115 -33 -344 -33 -458 0
-42 12 -85 22 -95 22 -18 0 -384 -254 -390 -270 -2 -5 17 -36 41 -69 l44 -61
163 116 163 115 71 -17 c98 -22 275 -29 377 -14 200 29 408 123 549 248 l43
38 -54 57 -54 57 -70 -55z"/>
</g>
</svg>
