<?xml version="1.0" standalone="no"?>
<!DOCTYPE svg PUBLIC "-//W3C//DTD SVG 20010904//EN"
 "http://www.w3.org/TR/2001/REC-SVG-20010904/DTD/svg10.dtd">
<svg version="1.0" xmlns="http://www.w3.org/2000/svg"
 width="512.000000pt" height="512.000000pt" viewBox="0 0 512.000000 512.000000"
 preserveAspectRatio="xMidYMid meet">

<g transform="translate(0.000000,512.000000) scale(0.100000,-0.100000)"
fill="#000000" stroke="none">
<path d="M1225 5015 l-25 -24 0 -496 0 -495 -455 0 -456 0 -24 -25 -25 -24 0
-1736 0 -1735 -55 0 c-46 0 -60 -4 -80 -25 -24 -23 -25 -28 -25 -175 0 -147 1
-152 25 -175 l24 -25 2431 0 2431 0 24 25 c24 23 25 28 25 175 0 147 -1 152
-25 175 -20 21 -34 25 -80 25 l-55 0 0 1335 0 1336 -25 24 -24 25 -456 0 -455
0 0 895 0 896 -25 24 -24 25 -1311 0 -1311 0 -24 -25z m2535 -2335 l0 -2200
-280 0 -280 0 0 615 0 616 -25 24 -24 25 -591 0 -591 0 -24 -25 -25 -24 0
-616 0 -615 -280 0 -280 0 0 2200 0 2200 1200 0 1200 0 0 -2200z m-2560 -520
l0 -1680 -400 0 -400 0 0 1680 0 1680 400 0 400 0 0 -1680z m3520 -400 l0
-1280 -400 0 -400 0 0 1280 0 1280 400 0 400 0 0 -1280z m-2240 -720 l0 -560
-200 0 -200 0 0 560 0 560 200 0 200 0 0 -560z m560 0 l0 -560 -200 0 -200 0
0 560 0 560 200 0 200 0 0 -560z m1840 -760 l0 -40 -2320 0 -2320 0 0 40 0 40
2320 0 2320 0 0 -40z"/>
<path d="M1545 4695 l-25 -24 0 -351 0 -351 25 -24 24 -25 991 0 991 0 24 25
25 24 0 351 0 351 -25 24 -24 25 -991 0 -991 0 -24 -25z m455 -375 l0 -240
-160 0 -160 0 0 240 0 240 160 0 160 0 0 -240z m480 0 l0 -240 -160 0 -160 0
0 240 0 240 160 0 160 0 0 -240z m480 0 l0 -240 -160 0 -160 0 0 240 0 240
160 0 160 0 0 -240z m480 0 l0 -240 -160 0 -160 0 0 240 0 240 160 0 160 0 0
-240z"/>
<path d="M1545 3735 l-25 -24 0 -351 0 -351 25 -24 24 -25 991 0 991 0 24 25
25 24 0 351 0 351 -25 24 -24 25 -991 0 -991 0 -24 -25z m455 -375 l0 -240
-160 0 -160 0 0 240 0 240 160 0 160 0 0 -240z m480 0 l0 -240 -160 0 -160 0
0 240 0 240 160 0 160 0 0 -240z m480 0 l0 -240 -160 0 -160 0 0 240 0 240
160 0 160 0 0 -240z m480 0 l0 -240 -160 0 -160 0 0 240 0 240 160 0 160 0 0
-240z"/>
<path d="M1545 2775 l-25 -24 0 -351 0 -351 25 -24 24 -25 991 0 991 0 24 25
25 24 0 351 0 351 -25 24 -24 25 -991 0 -991 0 -24 -25z m455 -375 l0 -240
-160 0 -160 0 0 240 0 240 160 0 160 0 0 -240z m480 0 l0 -240 -160 0 -160 0
0 240 0 240 160 0 160 0 0 -240z m480 0 l0 -240 -160 0 -160 0 0 240 0 240
160 0 160 0 0 -240z m480 0 l0 -240 -160 0 -160 0 0 240 0 240 160 0 160 0 0
-240z"/>
<path d="M505 3735 l-25 -24 0 -271 0 -271 25 -24 24 -25 271 0 271 0 24 25
25 24 0 271 0 271 -25 24 -24 25 -271 0 -271 0 -24 -25z m455 -295 l0 -160
-160 0 -160 0 0 160 0 160 160 0 160 0 0 -160z"/>
<path d="M505 2935 l-25 -24 0 -271 0 -271 25 -24 24 -25 271 0 271 0 24 25
25 24 0 271 0 271 -25 24 -24 25 -271 0 -271 0 -24 -25z m455 -295 l0 -160
-160 0 -160 0 0 160 0 160 160 0 160 0 0 -160z"/>
<path d="M505 2135 l-25 -24 0 -271 0 -271 25 -24 24 -25 271 0 271 0 24 25
25 24 0 271 0 271 -25 24 -24 25 -271 0 -271 0 -24 -25z m455 -295 l0 -160
-160 0 -160 0 0 160 0 160 160 0 160 0 0 -160z"/>
<path d="M4025 2935 l-25 -24 0 -271 0 -271 25 -24 24 -25 271 0 271 0 24 25
25 24 0 271 0 271 -25 24 -24 25 -271 0 -271 0 -24 -25z m455 -295 l0 -160
-160 0 -160 0 0 160 0 160 160 0 160 0 0 -160z"/>
<path d="M4025 2135 l-25 -24 0 -271 0 -271 25 -24 24 -25 271 0 271 0 24 25
25 24 0 271 0 271 -25 24 -24 25 -271 0 -271 0 -24 -25z m455 -295 l0 -160
-160 0 -160 0 0 160 0 160 160 0 160 0 0 -160z"/>
</g>
</svg>
