<?xml version="1.0" standalone="no"?>
<!DOCTYPE svg PUBLIC "-//W3C//DTD SVG 20010904//EN"
 "http://www.w3.org/TR/2001/REC-SVG-20010904/DTD/svg10.dtd">
<svg version="1.0" xmlns="http://www.w3.org/2000/svg"
 width="512.000000pt" height="512.000000pt" viewBox="0 0 512.000000 512.000000"
 preserveAspectRatio="xMidYMid meet">

<g transform="translate(0.000000,512.000000) scale(0.100000,-0.100000)"
fill="#000000" stroke="none">
<path d="M2509 4981 c-14 -5 -36 -14 -48 -21 -25 -13 -2319 -1907 -2385 -1969
-96 -90 -101 -216 -12 -306 81 -81 193 -83 291 -5 l50 39 5 -1042 5 -1042 23
-65 c58 -162 176 -297 322 -369 150 -74 59 -70 1800 -70 1302 0 1568 2 1635
14 218 39 407 204 487 425 l23 65 5 1042 5 1042 50 -39 c98 -78 210 -76 291 5
80 81 85 203 11 284 -39 42 -2382 1978 -2415 1995 -39 20 -108 28 -143 17z
m922 -1196 l858 -710 -2 -1192 -2 -1191 -30 -44 c-17 -23 -51 -54 -75 -68 -45
-25 -45 -25 -357 -28 l-313 -3 0 716 c0 483 -4 730 -11 759 -13 54 -59 110
-110 136 -37 19 -62 20 -829 20 -767 0 -792 -1 -829 -20 -51 -26 -97 -82 -110
-136 -7 -29 -11 -276 -11 -759 l0 -716 -312 3 c-313 3 -313 3 -358 28 -24 14
-58 45 -75 68 l-30 44 -2 1191 -2 1192 862 712 c474 392 866 712 871 710 4 -1
395 -322 867 -712z m-343 -2627 l-3 -603 -525 0 -525 0 -3 603 -2 602 530 0
530 0 -2 -602z"/>
</g>
</svg>
