<?xml version="1.0" standalone="no"?>
<!DOCTYPE svg PUBLIC "-//W3C//DTD SVG 20010904//EN"
 "http://www.w3.org/TR/2001/REC-SVG-20010904/DTD/svg10.dtd">
<svg version="1.0" xmlns="http://www.w3.org/2000/svg"
 width="512.000000pt" height="512.000000pt" viewBox="0 0 512.000000 512.000000"
 preserveAspectRatio="xMidYMid meet">

<g transform="translate(0.000000,512.000000) scale(0.100000,-0.100000)"
fill="#000000" stroke="none">
<path d="M2633 4946 c-336 -85 -503 -450 -347 -758 l24 -47 -120 90 c-65 49
-145 106 -177 125 -203 123 -480 101 -665 -52 -50 -42 -406 -453 -496 -573
-72 -96 -143 -233 -181 -346 -38 -116 -303 -1418 -295 -1451 12 -49 34 -54
224 -54 l176 0 87 -284 87 -283 -70 -384 c-39 -211 -70 -409 -70 -441 0 -120
74 -237 187 -293 50 -25 70 -29 143 -30 71 0 94 4 141 26 64 30 116 79 155
144 22 39 39 116 110 503 46 251 84 466 84 476 0 11 -36 138 -80 282 -44 144
-80 267 -80 273 0 8 51 11 170 11 168 0 171 0 195 25 14 13 25 33 25 45 0 11
-54 236 -120 500 -66 264 -120 485 -120 492 0 7 66 98 147 202 l147 190 22
-125 c28 -163 63 -237 153 -328 81 -82 142 -114 321 -167 l135 -39 -280 -2
c-186 -2 -287 -7 -302 -14 -42 -22 -46 -53 -41 -321 4 -223 8 -261 26 -318 61
-186 213 -334 397 -385 39 -11 116 -18 220 -22 l160 -5 113 -111 112 -112
-166 -166 -166 -167 -57 -6 c-168 -20 -318 -141 -371 -302 -19 -55 -22 -82
-18 -162 3 -85 8 -106 38 -167 145 -302 558 -342 756 -73 62 85 86 166 83 278
l-3 91 144 144 145 145 147 -147 147 -147 -1 -85 c-1 -140 36 -237 126 -327
236 -236 629 -142 736 177 18 52 21 81 18 154 -3 79 -8 101 -39 166 -67 139
-188 229 -340 251 l-74 11 -162 161 c-90 88 -163 165 -163 171 0 6 48 58 108
117 l107 106 165 5 c129 4 179 10 230 26 201 64 353 233 396 441 13 63 15 151
12 565 l-4 490 -26 96 c-114 421 -480 718 -900 732 -69 2 -80 0 -100 -21 l-23
-23 -3 -624 -2 -625 -311 0 -311 0 16 23 c49 66 68 166 47 244 -16 59 -68 123
-126 155 -28 15 -124 55 -215 90 -149 57 -170 68 -215 113 -71 71 -78 100 -70
299 8 186 -3 257 -59 367 l-34 66 49 -33 c264 -177 629 -77 766 211 136 287
-4 621 -305 726 -73 26 -218 33 -289 15z m271 -179 c77 -35 140 -98 179 -176
29 -60 32 -73 32 -161 -1 -83 -4 -102 -29 -152 -131 -271 -515 -284 -653 -21
-38 72 -44 100 -44 183 0 158 103 292 266 347 61 20 182 10 249 -20z m-1109
-498 c82 -15 137 -45 292 -161 146 -108 199 -167 235 -255 21 -54 23 -72 23
-273 l0 -215 32 -67 c40 -85 97 -147 170 -185 32 -17 130 -58 218 -93 183 -71
215 -95 215 -159 0 -50 -38 -98 -84 -106 -24 -5 -101 13 -297 70 -145 43 -285
88 -310 101 -62 31 -143 121 -167 187 -11 28 -31 133 -46 232 -15 99 -31 193
-37 209 -19 61 -87 76 -131 29 -14 -16 -123 -154 -242 -308 -152 -197 -216
-287 -216 -305 0 -14 52 -229 114 -477 l114 -453 -564 0 -564 0 5 23 c3 12 59
288 125 612 65 325 130 622 144 662 33 96 100 224 158 301 103 136 452 533
493 562 50 35 80 48 150 66 64 16 97 17 170 3z m2235 -505 c238 -79 441 -283
515 -518 36 -112 45 -187 45 -393 l0 -183 -370 0 -370 0 0 566 0 567 53 -7
c28 -4 86 -18 127 -32z m560 -1429 c0 -95 -5 -198 -11 -227 -37 -172 -177
-303 -351 -328 -83 -12 -1704 -12 -1787 0 -175 25 -317 163 -351 339 -5 30
-10 130 -10 222 l0 169 1255 0 1255 0 0 -175z m-3207 -739 l87 -284 -80 -437
c-51 -283 -86 -449 -98 -469 -53 -90 -180 -112 -258 -44 -45 40 -64 77 -64
128 0 23 32 214 70 425 39 211 70 392 70 401 0 10 -36 136 -80 280 -44 144
-80 267 -80 273 0 8 56 11 173 11 l173 0 87 -284z m1787 11 c0 -1 -24 -26 -53
-55 l-53 -52 -54 55 -54 55 107 0 c59 0 107 -1 107 -3z m181 -371 l-375 -375
-51 52 c-28 29 -68 61 -88 72 l-37 20 302 302 303 303 160 0 160 0 -374 -374z
m394 -97 c118 -119 128 -132 111 -142 -45 -28 -117 -89 -132 -113 l-17 -25
-129 128 -128 128 77 77 c43 43 80 78 83 78 3 0 64 -59 135 -131z m-1007 -283
c95 -48 143 -125 150 -238 4 -69 2 -84 -22 -132 -85 -173 -299 -219 -441 -94
-66 58 -95 123 -95 213 1 135 84 241 215 276 50 13 141 1 193 -25z m1464 -3
c200 -109 197 -397 -4 -499 -189 -96 -410 40 -410 251 0 118 82 235 191 270
67 22 159 13 223 -22z"/>
</g>
</svg>
