<?xml version="1.0" standalone="no"?>
<!DOCTYPE svg PUBLIC "-//W3C//DTD SVG 20010904//EN"
 "http://www.w3.org/TR/2001/REC-SVG-20010904/DTD/svg10.dtd">
<svg version="1.0" xmlns="http://www.w3.org/2000/svg"
 width="512.000000pt" height="512.000000pt" viewBox="0 0 512.000000 512.000000"
 preserveAspectRatio="xMidYMid meet">

<g transform="translate(0.000000,512.000000) scale(0.100000,-0.100000)"
fill="#000000" stroke="none">
<path d="M1383 4782 c-139 -50 -213 -163 -213 -327 l0 -85 -187 0 c-130 0
-207 -5 -251 -15 -192 -46 -351 -205 -397 -397 -22 -96 -22 -3132 0 -3227 42
-176 183 -332 351 -387 57 -18 111 -19 1874 -19 1763 0 1817 1 1874 19 169 56
309 210 351 387 22 95 22 3131 0 3227 -46 192 -205 351 -397 397 -44 10 -121
15 -254 15 l-192 0 -4 98 c-5 111 -28 168 -95 236 -60 61 -133 90 -223 90 -91
-1 -148 -23 -214 -84 -69 -64 -98 -131 -104 -246 l-5 -94 -742 0 -742 0 -6 88
c-7 114 -28 171 -88 236 -85 93 -222 129 -336 88z m141 -206 c52 -22 66 -50
66 -133 l0 -73 -105 0 -105 0 0 65 c0 79 19 121 63 140 40 18 41 18 81 1z
m2168 -25 c30 -27 33 -34 36 -105 l4 -76 -106 0 -106 0 0 76 c0 70 2 78 29
105 41 40 98 41 143 0z m-2520 -474 c5 -96 29 -154 91 -216 50 -51 183 -121
230 -121 72 0 121 76 93 143 -11 28 -30 44 -89 76 -98 54 -110 69 -115 141
l-4 60 959 0 960 0 6 -79 c10 -149 75 -238 226 -310 84 -40 93 -42 126 -31 40
13 75 59 75 98 0 46 -28 79 -104 121 -93 51 -106 69 -106 143 l0 58 383 0
c413 0 457 -4 534 -54 56 -35 89 -74 120 -141 27 -58 28 -66 31 -252 l4 -192
-292 -3 -292 -3 -29 -33 c-34 -38 -39 -93 -13 -131 33 -47 64 -51 354 -51
l270 0 -2 -1257 c-3 -1198 -4 -1260 -22 -1306 -25 -66 -104 -149 -168 -178
l-53 -24 -1785 0 -1785 0 -53 24 c-64 29 -143 112 -168 178 -18 46 -19 108
-22 1306 l-2 1257 1550 0 c1672 0 1596 -2 1634 51 20 30 21 88 0 117 -38 55
58 52 -1629 52 l-1555 0 0 168 c0 223 16 285 94 370 35 38 107 78 163 91 21 5
115 9 209 10 l171 1 5 -83z"/>
<path d="M2193 2974 c-61 -30 -63 -46 -63 -414 0 -370 2 -385 65 -414 49 -24
681 -24 730 0 63 29 65 44 65 414 0 370 -2 385 -65 414 -49 24 -684 23 -732 0z
m577 -414 l0 -210 -210 0 -210 0 0 210 0 210 210 0 210 0 0 -210z"/>
<path d="M4114 2974 c-24 -12 -64 -71 -190 -279 -87 -146 -161 -265 -165 -265
-3 0 -40 43 -84 96 -92 112 -107 124 -156 124 -73 0 -124 -76 -96 -142 8 -18
76 -106 150 -195 154 -183 178 -199 244 -166 32 16 62 60 236 348 110 182 204
344 209 361 14 43 -12 97 -57 118 -41 20 -52 20 -91 0z"/>
<path d="M901 2964 c-48 -34 -51 -60 -51 -409 0 -359 3 -381 59 -409 25 -14
81 -16 371 -16 380 0 389 1 416 65 20 50 21 670 0 719 -28 67 -22 66 -416 66
-313 0 -358 -2 -379 -16z m589 -409 l0 -215 -210 0 -210 0 0 215 0 215 210 0
210 0 0 -215z"/>
<path d="M1554 1694 c-24 -12 -64 -71 -190 -279 -87 -146 -161 -265 -165 -265
-3 0 -40 43 -84 96 -92 112 -107 124 -156 124 -73 0 -124 -76 -96 -142 8 -18
76 -106 150 -195 154 -183 178 -199 244 -166 32 16 62 60 236 348 110 182 204
344 209 361 14 43 -12 97 -57 118 -41 20 -52 20 -91 0z"/>
<path d="M2181 1684 c-48 -34 -51 -60 -51 -409 0 -359 3 -381 59 -409 25 -14
81 -16 371 -16 380 0 389 1 416 65 20 50 21 670 0 719 -28 67 -22 66 -416 66
-313 0 -358 -2 -379 -16z m589 -409 l0 -215 -210 0 -210 0 0 215 0 215 210 0
210 0 0 -215z"/>
<path d="M3461 1684 c-48 -34 -51 -60 -51 -409 0 -359 3 -381 59 -409 25 -14
81 -16 371 -16 380 0 389 1 416 65 20 50 21 670 0 719 -28 67 -22 66 -416 66
-313 0 -358 -2 -379 -16z m589 -409 l0 -215 -210 0 -210 0 0 215 0 215 210 0
210 0 0 -215z"/>
</g>
</svg>
