<?xml version="1.0" standalone="no"?>
<!DOCTYPE svg PUBLIC "-//W3C//DTD SVG 20010904//EN"
 "http://www.w3.org/TR/2001/REC-SVG-20010904/DTD/svg10.dtd">
<svg version="1.0" xmlns="http://www.w3.org/2000/svg"
 width="512.000000pt" height="512.000000pt" viewBox="0 0 512.000000 512.000000"
 preserveAspectRatio="xMidYMid meet">

<g transform="translate(0.000000,512.000000) scale(0.100000,-0.100000)"
fill="#000000" stroke="none">
<path d="M2171 5100 c-24 -11 -58 -35 -75 -53 -17 -18 -57 -45 -89 -60 -190
-87 -326 -282 -344 -494 -5 -67 -4 -73 20 -97 18 -18 37 -26 62 -26 19 0 35
-1 35 -2 0 -2 -9 -32 -20 -66 -27 -87 -27 -227 0 -314 53 -171 204 -311 382
-353 262 -62 539 96 618 353 27 87 27 227 0 314 -11 34 -20 64 -20 66 0 1 16
2 35 2 25 0 44 8 62 26 24 24 25 30 20 97 -18 213 -152 404 -347 496 -33 16
-69 40 -80 54 -11 14 -43 37 -72 51 -63 32 -126 33 -187 6z m137 -150 c21 -20
22 -28 22 -225 l0 -205 -70 0 -70 0 0 205 c0 197 1 205 22 225 12 11 34 20 48
20 14 0 36 -9 48 -20z m-278 -275 l0 -155 -106 0 -106 0 6 33 c13 68 65 154
131 216 36 34 68 61 70 61 3 0 5 -70 5 -155z m564 66 c48 -52 90 -130 102
-189 l7 -32 -107 0 -106 0 0 156 0 155 28 -19 c15 -11 49 -43 76 -71z m1 -431
c25 -47 30 -69 33 -145 4 -102 -15 -170 -68 -244 -63 -86 -192 -151 -300 -151
-67 0 -166 34 -223 75 -58 43 -100 100 -128 174 -38 102 -18 262 44 339 7 9
78 12 311 10 l301 -3 30 -55z"/>
<path d="M712 4150 c-19 -18 -22 -32 -22 -94 0 -262 141 -544 358 -717 127
-101 279 -173 422 -199 36 -6 75 -13 88 -16 l22 -4 0 -248 c1 -136 5 -277 9
-314 11 -83 42 -149 97 -208 l42 -45 4 -381 3 -380 25 -49 c18 -34 41 -60 72
-80 l47 -30 0 -292 1 -293 -123 0 c-124 0 -134 -3 -169 -43 -1 -1 -4 -132 -7
-291 l-6 -289 -47 -16 c-66 -22 -88 -44 -88 -86 0 -39 31 -75 65 -75 22 0 455
142 492 162 13 6 27 27 33 47 6 22 10 259 10 606 l0 570 40 23 c61 34 90 87
103 182 l11 80 66 0 66 0 11 -80 c13 -95 42 -148 103 -182 l40 -23 0 -570 c0
-347 4 -584 10 -606 6 -20 20 -41 33 -47 37 -20 470 -162 492 -162 34 0 65 36
65 75 0 42 -22 64 -88 86 l-47 16 -6 289 c-3 159 -6 290 -7 291 -35 40 -45 43
-169 43 l-123 0 1 293 0 292 47 30 c31 20 54 46 72 80 l25 49 3 380 4 381 42
45 c97 104 109 176 104 604 l-3 301 -28 57 c-30 61 -64 95 -131 131 -41 22
-46 22 -516 22 l-475 0 -54 -30 c-58 -32 -105 -82 -123 -132 -11 -31 -14 -32
-52 -26 -153 23 -296 84 -412 177 -114 91 -201 209 -254 348 -27 71 -39 127
-56 286 -9 74 -74 107 -122 62z m1168 -1260 c0 -429 0 -429 -22 -450 -28 -26
-29 -25 -60 8 -58 62 -58 61 -58 437 0 282 3 351 14 374 16 30 67 60 104 61
l22 0 0 -430z m600 205 l0 -225 -220 0 -220 0 0 225 0 225 220 0 220 0 0 -225z
m236 209 c63 -30 64 -35 64 -419 0 -376 0 -375 -58 -437 -31 -33 -32 -34 -60
-8 -22 21 -22 21 -22 450 l0 430 21 0 c12 0 36 -7 55 -16z m-234 -724 c6 -169
24 -216 100 -265 l47 -30 0 -362 c1 -360 1 -362 -21 -383 -26 -24 -65 -26 -93
-4 -18 13 -21 30 -25 138 -6 129 -13 150 -56 166 -14 6 -42 3 -75 -6 -68 -18
-130 -18 -198 0 -33 9 -61 12 -75 6 -43 -16 -50 -37 -56 -166 -4 -108 -7 -125
-25 -138 -28 -22 -67 -20 -93 4 -22 21 -22 23 -21 383 l0 362 47 30 c76 49 94
96 100 265 l5 140 217 0 217 0 5 -140z m-604 -2117 l-3 -186 -67 -23 -68 -23
0 210 0 209 70 0 70 0 -2 -187z m902 -22 l0 -210 -67 23 -68 23 -3 186 -2 187
70 0 70 0 0 -209z"/>
<path d="M3117 3456 c-10 -8 -22 -29 -27 -47 -6 -21 -10 -353 -10 -839 0 -486
4 -818 10 -839 18 -63 -15 -60 670 -60 685 0 652 -3 670 60 13 45 13 1633 0
1678 -18 63 15 60 -670 60 -511 0 -628 -2 -643 -13z m515 -379 c-228 -229
-242 -245 -242 -280 0 -45 31 -77 74 -77 26 0 70 41 331 300 l301 300 92 0 92
0 0 -63 0 -62 -520 -520 -520 -520 0 583 0 582 317 0 317 0 -242 -243z m648
-677 l0 -580 -317 0 -317 0 242 243 c228 229 242 245 242 280 0 45 -31 77 -74
77 -26 0 -70 -41 -331 -300 l-301 -300 -92 0 -92 0 0 62 0 63 517 517 c285
285 519 518 520 518 2 0 3 -261 3 -580z"/>
</g>
</svg>
