<?xml version="1.0" standalone="no"?>
<!DOCTYPE svg PUBLIC "-//W3C//DTD SVG 20010904//EN"
 "http://www.w3.org/TR/2001/REC-SVG-20010904/DTD/svg10.dtd">
<svg version="1.0" xmlns="http://www.w3.org/2000/svg"
 width="512.000000pt" height="512.000000pt" viewBox="0 0 512.000000 512.000000"
 preserveAspectRatio="xMidYMid meet">

<g transform="translate(0.000000,512.000000) scale(0.100000,-0.100000)"
fill="#000000" stroke="none">
<path d="M351 5004 c-30 -8 -69 -24 -87 -35 -52 -32 -111 -106 -134 -165 -20
-54 -20 -67 -20 -2244 l0 -2189 22 -58 c27 -74 112 -161 183 -189 49 -19 105
-19 2219 -22 2360 -2 2234 -5 2324 52 55 35 109 101 132 163 20 53 20 75 20
2243 l0 2189 -22 58 c-27 74 -112 161 -183 189 -49 19 -104 19 -2225 21 -1881
2 -2182 0 -2229 -13z m4425 -169 c28 -16 49 -39 63 -68 20 -41 21 -60 21 -305
l0 -262 -2300 0 -2301 0 3 273 c3 272 3 274 28 310 13 19 40 45 60 56 35 21
37 21 2209 21 l2174 0 43 -25z m82 -2628 l-3 -1833 -25 -37 c-13 -20 -41 -45
-61 -56 l-37 -21 -2172 0 -2173 0 -43 25 c-28 16 -49 39 -63 68 l-21 43 0
1822 0 1822 2300 0 2300 0 -2 -1833z"/>
<path d="M3745 4791 c-196 -48 -272 -283 -141 -438 95 -113 294 -110 398 5 37
41 68 120 68 172 0 64 -32 134 -84 186 -70 70 -153 96 -241 75z m134 -182 c26
-25 31 -39 31 -76 0 -38 -5 -50 -35 -80 -33 -33 -39 -35 -81 -30 -68 7 -99 42
-99 108 0 45 4 54 33 80 47 42 108 41 151 -2z"/>
<path d="M4363 4791 c-53 -14 -122 -60 -153 -103 -38 -52 -53 -108 -48 -178
11 -138 117 -239 252 -240 81 0 129 17 182 63 67 59 89 107 89 197 0 85 -20
134 -77 190 -59 60 -167 91 -245 71z m128 -171 c83 -60 37 -200 -66 -200 -58
0 -115 55 -115 110 0 29 26 76 52 94 32 22 94 20 129 -4z"/>
<path d="M528 4750 c-76 -23 -137 -87 -158 -168 -25 -98 28 -204 130 -258 34
-18 89 -19 1345 -22 936 -2 1325 0 1362 8 74 16 129 60 160 127 59 129 -9 275
-146 313 -44 12 -2653 12 -2693 0z m2691 -176 c26 -34 26 -54 0 -88 l-20 -26
-1320 0 c-1306 0 -1319 0 -1339 20 -11 11 -20 33 -20 50 0 17 9 39 20 50 20
20 33 20 1339 20 l1320 0 20 -26z"/>
<path d="M615 3738 c-43 -23 -45 -34 -45 -224 0 -100 3 -190 6 -199 18 -46
-22 -45 1364 -45 1386 0 1346 -1 1364 45 8 22 8 368 0 390 -18 46 22 45 -1366
45 -924 -1 -1309 -4 -1323 -12z m2545 -228 l0 -80 -1220 0 -1220 0 0 80 0 80
1220 0 1220 0 0 -80z"/>
<path d="M3621 3739 c-51 -20 -67 -78 -32 -120 l19 -24 452 0 452 0 19 24 c36
44 19 100 -35 121 -35 13 -841 13 -875 -1z"/>
<path d="M3615 3418 c-61 -33 -60 -103 2 -136 15 -9 142 -12 443 -12 357 0
425 2 450 15 53 27 53 103 0 130 -25 13 -93 15 -452 15 -287 -1 -429 -4 -443
-12z"/>
<path d="M591 2974 c-20 -25 -21 -40 -21 -211 0 -182 0 -184 25 -208 l24 -25
1321 0 1321 0 24 25 c25 24 25 26 25 208 0 171 -1 186 -21 211 l-20 26 -1329
0 -1329 0 -20 -26z m2569 -209 l0 -85 -1220 0 -1220 0 0 85 0 85 1220 0 1220
0 0 -85z"/>
<path d="M3595 2975 c-30 -30 -32 -64 -4 -99 l20 -26 449 0 449 0 20 26 c28
35 26 69 -4 99 l-24 25 -441 0 -441 0 -24 -25z"/>
<path d="M3591 2654 c-28 -35 -26 -69 4 -99 l24 -25 441 0 441 0 24 25 c30 30
32 64 4 99 l-20 26 -449 0 -449 0 -20 -26z"/>
<path d="M1511 2191 c-11 -11 -23 -35 -26 -53 -3 -18 -5 -170 -3 -336 l3 -304
28 -24 28 -24 749 0 749 0 15 -52 c184 -630 238 -805 255 -822 23 -22 72 -26
96 -6 8 7 59 82 111 166 53 85 99 154 103 154 3 0 67 -61 141 -135 179 -180
160 -180 342 4 181 182 181 161 1 343 -81 82 -133 141 -128 146 6 5 71 46 145
92 74 46 145 92 158 103 28 25 30 86 5 110 -14 12 -613 197 -638 197 -3 0 -5
85 -5 189 0 195 -8 244 -40 261 -12 6 -394 10 -1044 10 -1003 0 -1026 0 -1045
-19z m1969 -262 c0 -117 -2 -130 -16 -125 -9 4 -118 36 -243 72 -246 72 -268
73 -293 19 -10 -22 -6 -46 25 -154 20 -70 37 -131 37 -134 0 -4 -304 -7 -675
-7 l-675 0 0 230 0 230 920 0 920 0 0 -131z m-145 -245 c105 -31 228 -67 275
-81 205 -59 425 -125 428 -128 1 -1 -50 -35 -115 -75 -152 -94 -153 -95 -153
-143 0 -37 8 -47 142 -183 l142 -144 -59 -60 c-33 -33 -64 -60 -70 -60 -6 0
-71 61 -145 136 -74 75 -145 140 -157 145 -44 17 -68 -5 -154 -142 -46 -72
-84 -128 -86 -123 -1 5 -59 203 -128 439 -69 237 -130 443 -135 458 -8 24 -7
27 8 23 9 -3 103 -31 207 -62z"/>
<path d="M592 1157 c-29 -31 -28 -72 3 -102 l24 -25 670 0 670 0 27 23 c33 28
37 76 9 107 -18 20 -29 20 -700 20 l-682 0 -21 -23z"/>
<path d="M2111 1154 c-28 -35 -26 -69 4 -99 23 -24 31 -25 135 -25 104 0 112
1 135 25 31 30 32 73 5 103 -19 20 -30 22 -140 22 -116 0 -119 -1 -139 -26z"/>
<path d="M595 775 c-32 -31 -33 -74 -2 -103 l23 -22 681 0 c669 0 680 0 698
20 28 31 24 79 -9 107 l-27 23 -670 0 -670 0 -24 -25z"/>
<path d="M2115 775 c-30 -30 -32 -64 -4 -99 20 -25 23 -26 139 -26 110 0 121
2 140 22 27 30 26 73 -5 103 -23 24 -31 25 -135 25 -104 0 -112 -1 -135 -25z"/>
</g>
</svg>
