<?xml version="1.0" standalone="no"?>
<!DOCTYPE svg PUBLIC "-//W3C//DTD SVG 20010904//EN"
 "http://www.w3.org/TR/2001/REC-SVG-20010904/DTD/svg10.dtd">
<svg version="1.0" xmlns="http://www.w3.org/2000/svg"
 width="512.000000pt" height="512.000000pt" viewBox="0 0 512.000000 512.000000"
 preserveAspectRatio="xMidYMid meet">

<g transform="translate(0.000000,512.000000) scale(0.100000,-0.100000)"
fill="#000000" stroke="none">
<path d="M274 5111 c-99 -24 -193 -102 -241 -199 l-28 -57 0 -625 0 -625 26
-55 c39 -82 90 -135 167 -172 l67 -33 495 -5 495 -5 -95 -56 c-52 -31 -143
-84 -202 -118 -59 -35 -119 -76 -133 -93 -46 -55 -27 -149 38 -188 30 -18 52
-20 285 -20 l252 0 0 -910 0 -910 -160 0 c-97 0 -169 -4 -184 -11 -51 -23 -55
-103 -7 -128 14 -8 532 -11 1690 -11 1658 0 1671 0 1691 20 30 30 27 83 -6
109 -25 19 -40 21 -195 21 l-169 0 0 910 0 910 258 0 c237 0 259 2 289 20 66
40 83 142 32 196 -35 37 -1172 694 -1201 694 -33 0 -65 -27 -73 -61 -5 -21 0
-34 22 -57 15 -16 264 -166 553 -333 l524 -304 -227 -3 -228 -2 -337 192
c-185 105 -458 260 -605 344 -159 90 -284 155 -307 159 -23 4 -55 2 -76 -5
-29 -10 -275 -146 -402 -222 l-33 -20 3 142 3 141 230 134 c127 74 238 134
248 135 10 0 99 -47 198 -104 99 -58 188 -108 199 -111 23 -7 75 18 84 40 22
59 -3 83 -224 212 l-185 108 -70 0 -70 0 -191 -112 c-106 -62 -199 -115 -207
-119 -15 -5 -17 41 -19 463 l-3 468 -29 59 c-37 76 -101 140 -174 174 l-57 27
-840 2 c-462 1 -854 -2 -871 -6z m1701 -160 c50 -22 101 -79 115 -128 8 -26
10 -275 8 -809 l-3 -772 -112 98 c-63 54 -136 108 -165 121 l-53 24 -741 5
-740 5 -41 27 c-26 17 -50 45 -67 79 l-26 53 0 573 c0 626 -1 614 58 677 15
16 45 37 67 47 38 18 83 19 850 19 762 0 812 -2 850 -19z m1354 -1726 l580
-330 1 -927 0 -928 -365 0 -365 0 0 407 c0 392 -1 408 -21 450 -11 23 -35 53
-52 65 -32 23 -35 23 -372 23 l-340 0 -34 -24 c-69 -50 -71 -58 -71 -513 l0
-408 -370 0 -370 0 0 924 0 924 217 124 218 125 48 -39 c38 -30 58 -38 89 -38
85 0 128 54 128 163 l0 66 238 135 c130 75 242 134 249 133 6 -1 273 -150 592
-332z m-1554 88 c22 -12 51 -32 63 -46 l24 -25 -24 -15 c-12 -8 -103 -60 -200
-116 l-178 -101 -227 2 -228 3 280 163 280 163 85 -4 c61 -2 96 -9 125 -24z
m1253 -1875 l2 -398 -295 0 -295 0 0 393 c0 217 3 397 7 400 4 4 135 6 292 5
l286 -3 3 -397z"/>
<path d="M979 4745 c-131 -32 -183 -66 -485 -321 -118 -99 -186 -164 -190
-180 -4 -15 0 -34 10 -50 10 -13 117 -108 239 -210 291 -242 374 -284 569
-284 204 0 281 38 580 287 132 110 232 200 239 216 9 21 9 34 1 52 -6 13 -114
110 -239 214 -242 203 -312 247 -433 275 -79 19 -215 19 -291 1z m280 -154
c33 -10 80 -30 104 -44 45 -26 380 -301 385 -316 3 -8 -302 -265 -367 -310
-127 -87 -332 -95 -479 -18 -49 25 -404 316 -400 327 6 15 344 293 386 317
106 63 255 80 371 44z"/>
<path d="M1057 4466 c-212 -59 -239 -354 -42 -459 56 -30 164 -30 221 0 53 28
107 91 122 142 59 194 -109 370 -301 317z m108 -150 c39 -17 55 -42 55 -88 0
-42 -20 -72 -59 -88 -63 -25 -131 20 -131 87 0 43 23 77 60 92 34 13 36 13 75
-3z"/>
<path d="M565 2471 c-57 -14 -106 -44 -145 -88 -65 -74 -70 -102 -70 -395 l0
-259 25 -24 c13 -14 36 -25 50 -25 14 0 37 11 50 25 l25 24 0 253 c0 367 -21
348 380 348 257 0 271 1 290 20 30 30 27 83 -6 109 -26 20 -38 21 -298 20
-149 -1 -284 -4 -301 -8z"/>
<path d="M4294 2469 c-22 -11 -44 -48 -44 -75 0 -8 11 -26 25 -39 l24 -25 281
0 c312 0 334 -4 370 -62 20 -33 20 -48 20 -1026 0 -1096 4 -1032 -63 -1072
-31 -20 -67 -20 -2173 -20 l-2141 0 -34 23 c-18 12 -39 34 -46 47 -10 19 -13
161 -13 603 l0 578 -25 24 c-31 32 -69 32 -101 0 l-25 -25 3 -602 c3 -565 4
-605 22 -638 31 -59 96 -119 154 -140 52 -20 81 -20 2207 -20 2121 0 2156 0
2207 20 68 26 133 90 158 158 19 51 20 79 20 1056 0 1112 3 1064 -66 1144 -20
24 -59 55 -88 70 l-51 27 -300 2 c-197 2 -307 -1 -321 -8z"/>
</g>
</svg>
