<?xml version="1.0" standalone="no"?>
<!DOCTYPE svg PUBLIC "-//W3C//DTD SVG 20010904//EN"
 "http://www.w3.org/TR/2001/REC-SVG-20010904/DTD/svg10.dtd">
<svg version="1.0" xmlns="http://www.w3.org/2000/svg"
 width="512.000000pt" height="512.000000pt" viewBox="0 0 512.000000 512.000000"
 preserveAspectRatio="xMidYMid meet">

<g transform="translate(0.000000,512.000000) scale(0.100000,-0.100000)"
fill="#000000" stroke="none">
<path d="M1726 4777 c-19 -19 -24 -38 -29 -112 -18 -241 -108 -445 -271 -614
-167 -173 -362 -266 -619 -295 -127 -14 -143 -21 -153 -73 -5 -27 -1 -37 22
-61 27 -26 37 -29 124 -35 289 -18 566 -176 730 -417 102 -149 170 -362 170
-529 0 -56 31 -91 80 -91 59 0 76 28 83 142 8 122 36 229 92 345 151 319 445
521 803 551 109 10 135 21 146 68 8 29 -17 81 -41 87 -10 3 -54 8 -98 12 -428
35 -773 324 -876 734 -10 42 -23 121 -28 175 -7 85 -12 103 -31 118 -31 25
-76 23 -104 -5z m98 -564 c107 -214 277 -384 492 -494 l91 -47 -61 -28 c-221
-104 -447 -331 -537 -538 -13 -31 -27 -56 -30 -56 -4 0 -14 20 -23 44 -10 25
-48 91 -85 148 -112 168 -272 309 -453 399 l-66 32 61 29 c223 106 447 331
537 540 14 32 26 58 27 58 2 0 23 -39 47 -87z"/>
<path d="M3665 3505 c-19 -18 -25 -35 -25 -67 -1 -118 -52 -256 -134 -360 -89
-113 -252 -198 -405 -213 -91 -9 -99 -12 -116 -45 -21 -41 -19 -58 14 -91 24
-24 38 -29 78 -29 124 -1 274 -64 375 -159 106 -99 173 -236 185 -378 8 -94
28 -123 83 -123 51 0 80 35 80 95 0 62 35 188 72 258 50 96 155 196 258 245
91 43 163 62 236 62 37 0 51 5 76 30 25 26 29 36 24 63 -8 42 -39 67 -85 67
-68 0 -176 30 -257 69 -182 90 -303 270 -321 477 -5 63 -11 83 -29 101 -31 31
-78 30 -109 -2z m84 -441 c36 -67 142 -177 226 -233 l74 -49 -60 -37 c-76 -47
-173 -143 -224 -222 -22 -35 -42 -63 -45 -63 -3 0 -18 24 -35 52 -41 70 -157
186 -233 232 l-62 39 52 30 c67 38 215 187 248 250 14 26 27 47 30 47 3 0 16
-21 29 -46z"/>
<path d="M2507 2120 c-22 -17 -26 -30 -32 -102 -10 -112 -47 -237 -98 -328
-50 -89 -176 -219 -259 -269 -113 -66 -264 -111 -373 -111 -60 0 -95 -29 -95
-80 0 -57 29 -75 133 -83 193 -15 374 -106 504 -251 105 -119 166 -261 184
-430 9 -87 14 -104 36 -123 31 -29 65 -29 99 0 24 21 27 33 35 118 10 114 29
180 80 280 123 237 345 385 613 406 60 5 84 11 102 27 36 33 40 68 10 103 -23
27 -32 31 -105 36 -378 29 -665 311 -700 685 -7 76 -13 97 -31 117 -29 30 -68
32 -103 5z m95 -518 c78 -134 223 -272 361 -345 l48 -25 -58 -32 c-139 -79
-273 -209 -349 -340 -26 -44 -48 -80 -49 -80 -2 0 -20 30 -40 68 -76 137 -207
268 -345 344 -33 18 -60 36 -60 39 0 3 12 11 28 18 139 64 314 237 391 389 12
23 23 42 25 42 2 0 24 -35 48 -78z"/>
</g>
</svg>
